<svg xmlns="http://www.w3.org/2000/svg" version="1.1" xmlns:xlink="http://www.w3.org/1999/xlink" xmlns:svgjs="http://svgjs.dev/svgjs" width="100%" height="100%" viewBox="0 0 1000 600"><rect width="1000" height="600" x="0" y="0" fill="#000000"/><g><circle r="166.66666666666666" cx="309.76748148600257" cy="331.98970274987937" fill="#c5fad5" transform="matrix(0.873509895407,0,0,0.873509895407,0,10.003677095299452)"/><path d="M315.3388053878228 406.98971507826974L302.61784591440517 406.98971507826974L256.4688564599719 276.08693856148807Q254.63804839680012 270.8470396220654 252.71254336484358 268.1323931835693Q250.78703833288705 265.38618108881167 247.50421008168252 264.5023427134874Q244.18981617421636 263.58693868190153 238.06607885946943 263.58693868190153L238.06607885946943 263.58693868190153L238.06607885946943 256.9897165232308L292.61153287948355 256.9897165232308L292.61153287948355 263.58693868190153L281.468856219145 263.58693868190153Q277.617846155232 263.58693868190153 276.7024421236461 265.51244371385803Q275.78703809206024 267.43794874581454 277.1443613113082 271.5414840598203L277.1443613113082 271.5414840598203L315.1178457939917 381.29527088134176L315.78072457548495 381.54779613143444L353.50168380807577 271.9834032474824Q354.6380474334927 267.6589083396456 353.97516865199947 265.63870633890434Q353.28072421424463 263.58693868190153 348.95622930640786 263.58693868190153L348.95622930640786 263.58693868190153L338.066077896162 263.58693868190153L338.066077896162 256.9897165232308L381.46885525583764 256.9897165232308L381.46885525583764 263.58693868190153Q373.73526947175003 263.58693868190153 370.3261785954991 265.8596659327354Q366.91708771924823 268.1323931835693 364.20244128075217 275.3924941237333L364.20244128075217 275.3924941237333L315.3388053878228 406.98971507826974Z " fill="#AA96D" transform="matrix(0.873509895407,0,0,0.873509895407,0,10.003677095299452)"/><path d="M602.6542527036374 404.64827789391876L559.9749408294897 404.64827789391876L559.9749408294897 398.45384998996263L565.9322614452562 398.45384998996263Q572.778734391734 398.45384998996263 574.3792085870145 395.99386187499437Q575.9796827822952 393.56351217104987 575.9796827822952 387.1616153899277L575.9796827822952 387.1616153899277L575.9796827822952 282.1527251329102Q575.9796827822952 276.8178111486417 575.0016152185126 274.2689078006023Q574.0531860657537 271.6903660415392 570.6447687980267 270.86049053287525Q567.2363515302995 270.0009766131875 559.7674719523237 270.0009766131875L559.7674719523237 270.0009766131875L559.7674719523237 263.8065487092314L597.5268075965349 263.8065487092314L640.4135883478486 368.5783316780592L640.8581645132044 368.5783316780592L683.952414141684 263.8065487092314L719.8148914803777 263.8065487092314L719.8148914803777 270.0009766131875Q712.3460119024018 270.0009766131875 708.8190409905799 270.86049053287525Q705.2920700787579 271.6903660415392 704.343640925999 274.2689078006023Q703.3655733622165 276.8178111486417 703.3655733622165 282.1527251329102L703.3655733622165 282.1527251329102L703.3655733622165 386.50957034740605Q703.3655733622165 391.63701545450846 704.4325561590703 394.18591880254786Q705.4995389559239 396.764460561611 709.0265098677459 397.5943360702749Q712.5534807795677 398.45384998996263 719.8148914803777 398.45384998996263L719.8148914803777 398.45384998996263L719.8148914803777 404.64827789391876L667.5327344345467 404.64827789391876L667.5327344345467 398.45384998996263Q675.4165517668545 398.45384998996263 678.8249690345816 397.5054208372038Q682.2333863023086 396.5273532734212 683.2114538660912 393.9784499253819Q684.1598830188501 391.4295465773425 684.1598830188501 386.50957034740605L684.1598830188501 386.50957034740605L684.1598830188501 283.0122390525978L683.744945264518 283.0122390525978L636.3531260375998 399.10589503248434L632.5297710155407 399.10589503248434L584.5155451571246 283.0122390525978L584.070968991769 283.0122390525978L584.070968991769 387.1616153899277Q584.070968991769 394.18591880254786 585.5825279539783 396.31988439625525Q587.064448505164 398.45384998996263 594.7407969603059 398.45384998996263L594.7407969603059 398.45384998996263L602.6542527036374 398.45384998996263L602.6542527036374 404.64827789391876ZM786.1752937624725 406.9897123647922L786.1752937624725 406.9897123647922Q762.9091411088573 406.9897123647922 751.9132906190595 393.444958526955Q740.9174401292618 379.90020468911786 740.9174401292618 355.77453811581495L740.9174401292618 355.77453811581495Q740.9174401292618 339.1473895315116 745.9559700032931 327.17347147793123Q750.9648614663007 315.2291918353746 761.1011980364108 308.8272950542525Q771.2375346065209 302.42539827313027 786.3827626396386 302.42539827313027L786.3827626396386 302.42539827313027Q799.8386012444046 302.42539827313027 808.1373563310444 307.0193519818059Q816.465749828708 311.6133056904815 820.9411498932888 319.17110050152854Q825.4461883688931 326.7585337235992 827.0466625641737 335.7093338527607Q828.6471367594542 344.689772392946 828.6471367594542 353.64057252210756L828.6471367594542 353.64057252210756L828.6471367594542 355.5670692386489L756.9221820820671 355.5670692386489L757.1592893702568 348.7502347031948L808.7894013735661 348.7502347031948Q808.7894013735661 335.94644114095047 806.7739894239536 327.08455624486004Q804.7289390633173 318.22267134876967 799.9275164774757 313.62871764009407Q795.1260938916341 309.03476393141847 786.5902315168046 309.03476393141847L786.5902315168046 309.03476393141847Q777.639431387643 309.03476393141847 771.9784948821138 313.9547401613549Q766.3175583765844 318.8747163912914 763.6501013844502 328.35900791887974Q760.9826443923159 337.84329944646817 760.77517551515 351.71407580556615L760.77517551515 351.71407580556615Q760.77517551515 360.9019832229174 761.9607119560984 369.2303767205809Q763.1166099860233 377.5587702182445 766.4361120206792 384.16813587653263Q769.7259756443115 390.7775015348208 775.8314883151965 394.63049496790353Q781.9073625750577 398.45384998996263 791.717676623907 398.45384998996263L791.717676623907 398.45384998996263Q800.9055840412583 398.45384998996263 806.8629046570247 395.16398636633045Q812.8498636838149 391.84448433167444 816.465749828708 386.50957034740605Q820.1112743846246 381.17465636313756 822.0081326901424 375.6322735017031L822.0081326901424 375.6322735017031L827.7876228397666 378.1811768497425Q825.4461883688931 385.44258755055233 820.8522346602175 392.0519532088405Q816.2582809515419 398.6613188671286 808.0484410979733 402.84033482147225Q799.8386012444046 406.9897123647922 786.1752937624725 406.9897123647922ZM892.2215284053201 404.64827789391876L844.8593475894257 404.64827789391876L844.8593475894257 398.45384998996263Q851.8836510020458 398.45384998996263 854.9956841595357 397.5943360702749Q858.0780789060019 396.764460561611 858.8190391815948 394.3044724466427Q859.5896378682113 391.84448433167444 859.5896378682113 386.924508101738L859.5896378682113 386.924508101738L859.5896378682113 276.8178111486417Q859.5896378682113 271.2754282872072 858.2855477831679 269.4674852147607Q857.0110961091483 267.65954214231414 853.1877410870892 267.65954214231414L853.1877410870892 267.65954214231414L845.9263303862793 267.65954214231414L845.9263303862793 261.257645361192L871.741386387934 256.9897141737772L877.7283454147241 256.9897141737772L877.7283454147241 386.924508101738Q877.7283454147241 391.84448433167444 878.5582209233881 394.3044724466427Q879.4177348430758 396.764460561611 882.5297680005657 397.5943360702749Q885.6121627470319 398.45384998996263 892.2215284053201 398.45384998996263L892.2215284053201 398.45384998996263L892.2215284053201 404.64827789391876ZM955.173513419688 406.9897123647922L955.173513419688 406.9897123647922Q931.4924230117407 406.9897123647922 920.081634767611 393.652427404121Q908.6708465234811 380.3151424434499 908.6708465234811 354.7075553189612L908.6708465234811 354.7075553189612Q908.6708465234811 329.3074370716386 920.081634767611 315.76268323380145Q931.4924230117407 302.2179293959643 955.173513419688 302.2179293959643L955.173513419688 302.2179293959643Q978.8546038276352 302.2179293959643 990.2950304827887 315.6737680007303Q1001.7058187269184 329.09996819447264 1001.7058187269184 354.50008644179525L1001.7058187269184 354.50008644179525Q1001.7058187269184 380.3151424434499 990.2950304827887 393.652427404121Q978.8546038276352 406.9897123647922 955.173513419688 406.9897123647922ZM955.173513419688 400.172877829338L955.173513419688 400.172877829338Q969.044289778786 400.172877829338 975.357271326837 388.31751341985256Q981.6406144638644 376.49178742139077 981.6406144638644 354.50008644179525L981.6406144638644 354.50008644179525Q981.6406144638644 332.3009165850337 975.1201640386472 320.68265946373793Q968.629352024454 309.03476393141847 954.966044542522 309.03476393141847L954.966044542522 309.03476393141847Q941.30273706059 309.03476393141847 934.9008402794678 320.77157469680907Q928.4989434983457 332.50838546219967 928.4989434983457 354.7075553189612L928.4989434983457 354.7075553189612Q928.4989434983457 376.6992562985568 935.0193939235627 388.4360670639474Q941.5102059377559 400.172877829338 955.173513419688 400.172877829338Z " fill="#c5fad5" transform="matrix(0.873509895407,0,0,0.873509895407,0,10.003677095299452)"/></g></svg>